<svg width="48" height="48" viewBox="0 0 48 48" fill="none" xmlns="http://www.w3.org/2000/svg">
<path d="M12 26.4C11.3635 26.4 10.753 26.1471 10.3029 25.697C9.85283 25.2469 9.59998 24.6365 9.59998 24C9.59998 23.3635 9.85283 22.753 10.3029 22.3029C10.753 21.8528 11.3635 21.6 12 21.6H36C36.6365 21.6 37.2469 21.8528 37.697 22.3029C38.1471 22.753 38.4 23.3635 38.4 24C38.4 24.6365 38.1471 25.2469 37.697 25.697C37.2469 26.1471 36.6365 26.4 36 26.4H12Z" fill="white"/>
<path d="M21.6 12C21.6 11.3635 21.8528 10.753 22.3029 10.3029C22.753 9.85283 23.3635 9.59998 24 9.59998C24.6365 9.59998 25.2469 9.85283 25.697 10.3029C26.1471 10.753 26.4 11.3635 26.4 12V36C26.4 36.6365 26.1471 37.2469 25.697 37.697C25.2469 38.1471 24.6365 38.4 24 38.4C23.3635 38.4 22.753 38.1471 22.3029 37.697C21.8528 37.2469 21.6 36.6365 21.6 36V12Z" fill="white"/>
</svg>
