<svg width="89" height="89" viewBox="0 0 89 89" fill="none" xmlns="http://www.w3.org/2000/svg">
<path d="M44.25 2.25V8.55" stroke="url(#paint0_linear_5070_5211)" stroke-width="4" stroke-linecap="round" stroke-linejoin="round"/>
<path fill-rule="evenodd" clip-rule="evenodd" d="M73.9501 14.55L69.4941 19.0061L73.9481 14.552L73.9501 14.55Z" fill="url(#paint1_linear_5070_5211)"/>
<path d="M73.9501 14.55L69.4941 19.0061" stroke="url(#paint2_linear_5070_5211)" stroke-width="4" stroke-linecap="round" stroke-linejoin="round"/>
<path d="M86.2501 44.25H79.9501" stroke="url(#paint3_linear_5070_5211)" stroke-width="4" stroke-linecap="round" stroke-linejoin="round"/>
<path fill-rule="evenodd" clip-rule="evenodd" d="M73.9501 73.9501L69.4941 69.4941L73.9481 73.9481L73.9501 73.9501Z" fill="url(#paint4_linear_5070_5211)"/>
<path d="M73.9501 73.9501L69.4941 69.4941" stroke="url(#paint5_linear_5070_5211)" stroke-width="4" stroke-linecap="round" stroke-linejoin="round"/>
<path d="M44.25 86.2501V79.9501" stroke="url(#paint6_linear_5070_5211)" stroke-width="4" stroke-linecap="round" stroke-linejoin="round"/>
<path fill-rule="evenodd" clip-rule="evenodd" d="M14.55 73.9501L19.0061 69.4941L14.552 73.9481L14.55 73.9501Z" fill="url(#paint7_linear_5070_5211)"/>
<path d="M14.55 73.9501L19.0061 69.4941" stroke="url(#paint8_linear_5070_5211)" stroke-width="4" stroke-linecap="round" stroke-linejoin="round"/>
<path d="M2.25 44.25H8.55" stroke="url(#paint9_linear_5070_5211)" stroke-width="4" stroke-linecap="round" stroke-linejoin="round"/>
<path fill-rule="evenodd" clip-rule="evenodd" d="M14.55 14.55L19.0061 19.0061L14.552 14.552L14.55 14.55Z" fill="url(#paint10_linear_5070_5211)"/>
<path d="M14.55 14.55L19.0061 19.0061" stroke="url(#paint11_linear_5070_5211)" stroke-width="4" stroke-linecap="round" stroke-linejoin="round"/>
<path d="M44.25 68.25C57.504 68.25 68.25 57.504 68.25 44.25C68.25 30.996 57.504 20.25 44.25 20.25C30.996 20.25 20.25 30.996 20.25 44.25C20.25 57.504 30.996 68.25 44.25 68.25Z" stroke="url(#paint12_linear_5070_5211)" stroke-width="4" stroke-linejoin="round"/>
<defs>
<linearGradient id="paint0_linear_5070_5211" x1="44.25" y1="5.4" x2="45.25" y2="5.4" gradientUnits="userSpaceOnUse">
<stop stop-color="#2AF598"/>
<stop offset="1" stop-color="#009EFD"/>
</linearGradient>
<linearGradient id="paint1_linear_5070_5211" x1="69.4941" y1="16.7781" x2="73.9501" y2="16.7781" gradientUnits="userSpaceOnUse">
<stop stop-color="#2AF598"/>
<stop offset="1" stop-color="#009EFD"/>
</linearGradient>
<linearGradient id="paint2_linear_5070_5211" x1="69.4941" y1="16.7781" x2="73.9501" y2="16.7781" gradientUnits="userSpaceOnUse">
<stop stop-color="#2AF598"/>
<stop offset="1" stop-color="#009EFD"/>
</linearGradient>
<linearGradient id="paint3_linear_5070_5211" x1="79.9501" y1="44.75" x2="86.2501" y2="44.75" gradientUnits="userSpaceOnUse">
<stop stop-color="#2AF598"/>
<stop offset="1" stop-color="#009EFD"/>
</linearGradient>
<linearGradient id="paint4_linear_5070_5211" x1="69.4941" y1="71.7221" x2="73.9501" y2="71.7221" gradientUnits="userSpaceOnUse">
<stop stop-color="#2AF598"/>
<stop offset="1" stop-color="#009EFD"/>
</linearGradient>
<linearGradient id="paint5_linear_5070_5211" x1="69.4941" y1="71.7221" x2="73.9501" y2="71.7221" gradientUnits="userSpaceOnUse">
<stop stop-color="#2AF598"/>
<stop offset="1" stop-color="#009EFD"/>
</linearGradient>
<linearGradient id="paint6_linear_5070_5211" x1="44.25" y1="83.1001" x2="45.25" y2="83.1001" gradientUnits="userSpaceOnUse">
<stop stop-color="#2AF598"/>
<stop offset="1" stop-color="#009EFD"/>
</linearGradient>
<linearGradient id="paint7_linear_5070_5211" x1="14.55" y1="71.7221" x2="19.0061" y2="71.7221" gradientUnits="userSpaceOnUse">
<stop stop-color="#2AF598"/>
<stop offset="1" stop-color="#009EFD"/>
</linearGradient>
<linearGradient id="paint8_linear_5070_5211" x1="14.55" y1="71.7221" x2="19.0061" y2="71.7221" gradientUnits="userSpaceOnUse">
<stop stop-color="#2AF598"/>
<stop offset="1" stop-color="#009EFD"/>
</linearGradient>
<linearGradient id="paint9_linear_5070_5211" x1="2.25" y1="44.75" x2="8.55" y2="44.75" gradientUnits="userSpaceOnUse">
<stop stop-color="#2AF598"/>
<stop offset="1" stop-color="#009EFD"/>
</linearGradient>
<linearGradient id="paint10_linear_5070_5211" x1="14.55" y1="16.7781" x2="19.0061" y2="16.7781" gradientUnits="userSpaceOnUse">
<stop stop-color="#2AF598"/>
<stop offset="1" stop-color="#009EFD"/>
</linearGradient>
<linearGradient id="paint11_linear_5070_5211" x1="14.55" y1="16.7781" x2="19.0061" y2="16.7781" gradientUnits="userSpaceOnUse">
<stop stop-color="#2AF598"/>
<stop offset="1" stop-color="#009EFD"/>
</linearGradient>
<linearGradient id="paint12_linear_5070_5211" x1="20.25" y1="44.25" x2="68.25" y2="44.25" gradientUnits="userSpaceOnUse">
<stop stop-color="#2AF598"/>
<stop offset="1" stop-color="#009EFD"/>
</linearGradient>
</defs>
</svg>
