<svg width="84" height="84" viewBox="0 0 84 84" fill="none" xmlns="http://www.w3.org/2000/svg">
<path d="M45.9375 35.4375C45.9375 42 42 51.1875 42 51.1875M43.3125 38.0625C43.3125 38.0625 47.25 27.5625 38.0625 19.6875C28.875 11.8125 14.4375 14.4375 14.4375 14.4375C14.4375 14.4375 14.4375 24.9375 22.3125 32.8125C30.1875 40.6875 43.3125 38.0625 43.3125 38.0625ZM48.5625 30.1875C48.5625 30.1875 44.625 19.6875 53.8125 11.8125C63 3.93746 77.4375 6.56246 77.4375 6.56246C77.4375 6.56246 77.4375 17.0625 69.5625 24.9375C61.6875 32.8125 48.5625 30.1875 48.5625 30.1875ZM27.5625 48.5625H61.6875C61.6875 48.5625 64.3125 72.1875 44.625 72.1875C24.9375 72.1875 27.5625 48.5625 27.5625 48.5625Z" stroke="url(#paint0_linear_23_180)" stroke-width="4" stroke-linecap="round" stroke-linejoin="round"/>
<defs>
<linearGradient id="paint0_linear_23_180" x1="14.4375" y1="39.165" x2="77.4375" y2="39.165" gradientUnits="userSpaceOnUse">
<stop stop-color="#2AF598"/>
<stop offset="1" stop-color="#009EFD"/>
</linearGradient>
</defs>
</svg>
