<svg width="84" height="84" viewBox="0 0 84 84" fill="none" xmlns="http://www.w3.org/2000/svg">
<path d="M35 31.5H49M35 47.25C32.331 48.7909 30.2451 51.1695 29.0657 54.0168C27.8863 56.8641 27.6794 60.021 28.477 62.9978C29.2747 65.9747 31.0323 68.6052 33.4773 70.4813C35.9224 72.3574 38.9181 73.3744 42 73.3744C45.0819 73.3744 48.0776 72.3574 50.5227 70.4813C52.9677 68.6052 54.7253 65.9747 55.523 62.9978C56.3206 60.021 56.1137 56.8641 54.9343 54.0168C53.7549 51.1695 51.669 48.7909 49 47.25V17.5C49 15.6435 48.2625 13.863 46.9498 12.5503C45.637 11.2375 43.8565 10.5 42 10.5C40.1435 10.5 38.363 11.2375 37.0503 12.5503C35.7375 13.863 35 15.6435 35 17.5V47.25Z" stroke="url(#paint0_linear_23_182)" stroke-width="4" stroke-linecap="round" stroke-linejoin="round"/>
<defs>
<linearGradient id="paint0_linear_23_182" x1="28" y1="41.9372" x2="56" y2="41.9372" gradientUnits="userSpaceOnUse">
<stop stop-color="#2AF598"/>
<stop offset="1" stop-color="#009EFD"/>
</linearGradient>
</defs>
</svg>
